<mxfile host="Electron" modified="2024-07-27T13:57:55.046Z" agent="Mozilla/5.0 (Windows NT 10.0; Win64; x64) AppleWebKit/537.36 (KHTML, like Gecko) draw.io/24.2.5 Chrome/120.0.6099.109 Electron/28.1.0 Safari/537.36" etag="uN__MTLUglK6mmyfH5eY" version="24.2.5" type="device">
  <diagram name="Page-1" id="vvQ445-KnftqGlcrsWlr">
    <mxGraphModel dx="1500" dy="665" grid="1" gridSize="10" guides="0" tooltips="1" connect="0" arrows="1" fold="1" page="0" pageScale="1" pageWidth="850" pageHeight="1100" background="none" math="0" shadow="0">
      <root>
        <mxCell id="0" />
        <mxCell id="1" parent="0" />
        <mxCell id="KGIwouoYM7CJyyVQkk_m-18" value="BILDER--Inputs" style="swimlane;whiteSpace=wrap;html=1;sketch=1;hachureGap=4;jiggle=2;curveFitting=1;fontFamily=Architects Daughter;fontSource=https%3A%2F%2Ffonts.googleapis.com%2Fcss%3Ffamily%3DArchitects%2BDaughter;" vertex="1" parent="1">
          <mxGeometry x="-10" y="340" width="1150" height="440" as="geometry" />
        </mxCell>
        <mxCell id="KGIwouoYM7CJyyVQkk_m-19" value="TYPE--Inputs" style="swimlane;whiteSpace=wrap;html=1;sketch=1;hachureGap=4;jiggle=2;curveFitting=1;fontFamily=Architects Daughter;fontSource=https%3A%2F%2Ffonts.googleapis.com%2Fcss%3Ffamily%3DArchitects%2BDaughter;" vertex="1" parent="KGIwouoYM7CJyyVQkk_m-18">
          <mxGeometry x="10" y="40" width="1130" height="390" as="geometry">
            <mxRectangle x="10" y="40" width="110" height="30" as="alternateBounds" />
          </mxGeometry>
        </mxCell>
        <mxCell id="KGIwouoYM7CJyyVQkk_m-20" value="CLASS--Operation-Code" style="swimlane;whiteSpace=wrap;html=1;sketch=1;hachureGap=4;jiggle=2;curveFitting=1;fontFamily=Architects Daughter;fontSource=https%3A%2F%2Ffonts.googleapis.com%2Fcss%3Ffamily%3DArchitects%2BDaughter;" vertex="1" collapsed="1" parent="KGIwouoYM7CJyyVQkk_m-19">
          <mxGeometry x="10" y="30" width="170" height="30" as="geometry">
            <mxRectangle x="10" y="30" width="520" height="340" as="alternateBounds" />
          </mxGeometry>
        </mxCell>
        <mxCell id="KGIwouoYM7CJyyVQkk_m-24" value="" style="rounded=0;whiteSpace=wrap;html=1;sketch=1;hachureGap=4;jiggle=2;curveFitting=1;fontFamily=Architects Daughter;fontSource=https%3A%2F%2Ffonts.googleapis.com%2Fcss%3Ffamily%3DArchitects%2BDaughter;" vertex="1" parent="KGIwouoYM7CJyyVQkk_m-20">
          <mxGeometry x="20" y="40" width="120" height="130" as="geometry" />
        </mxCell>
        <mxCell id="KGIwouoYM7CJyyVQkk_m-25" value="" style="rounded=0;whiteSpace=wrap;html=1;sketch=1;hachureGap=4;jiggle=2;curveFitting=1;fontFamily=Architects Daughter;fontSource=https%3A%2F%2Ffonts.googleapis.com%2Fcss%3Ffamily%3DArchitects%2BDaughter;" vertex="1" parent="KGIwouoYM7CJyyVQkk_m-20">
          <mxGeometry x="200" y="40" width="120" height="130" as="geometry" />
        </mxCell>
        <mxCell id="KGIwouoYM7CJyyVQkk_m-26" value="" style="rounded=0;whiteSpace=wrap;html=1;sketch=1;hachureGap=4;jiggle=2;curveFitting=1;fontFamily=Architects Daughter;fontSource=https%3A%2F%2Ffonts.googleapis.com%2Fcss%3Ffamily%3DArchitects%2BDaughter;" vertex="1" parent="KGIwouoYM7CJyyVQkk_m-20">
          <mxGeometry x="380" y="40" width="120" height="130" as="geometry" />
        </mxCell>
        <mxCell id="KGIwouoYM7CJyyVQkk_m-27" value="NTT--I" style="text;html=1;align=center;verticalAlign=middle;whiteSpace=wrap;rounded=0;fontFamily=Architects Daughter;fontSource=https%3A%2F%2Ffonts.googleapis.com%2Fcss%3Ffamily%3DArchitects%2BDaughter;" vertex="1" parent="KGIwouoYM7CJyyVQkk_m-20">
          <mxGeometry x="50" y="50" width="60" height="30" as="geometry" />
        </mxCell>
        <mxCell id="KGIwouoYM7CJyyVQkk_m-28" value="NTT--Up-Code" style="text;html=1;align=center;verticalAlign=middle;whiteSpace=wrap;rounded=0;fontFamily=Architects Daughter;fontSource=https%3A%2F%2Ffonts.googleapis.com%2Fcss%3Ffamily%3DArchitects%2BDaughter;" vertex="1" parent="KGIwouoYM7CJyyVQkk_m-20">
          <mxGeometry x="230" y="50" width="60" height="30" as="geometry" />
        </mxCell>
        <mxCell id="KGIwouoYM7CJyyVQkk_m-29" value="NTT--Other" style="text;html=1;align=center;verticalAlign=middle;whiteSpace=wrap;rounded=0;fontFamily=Architects Daughter;fontSource=https%3A%2F%2Ffonts.googleapis.com%2Fcss%3Ffamily%3DArchitects%2BDaughter;" vertex="1" parent="KGIwouoYM7CJyyVQkk_m-20">
          <mxGeometry x="410" y="50" width="60" height="30" as="geometry" />
        </mxCell>
        <mxCell id="KGIwouoYM7CJyyVQkk_m-30" value="" style="rounded=0;whiteSpace=wrap;html=1;sketch=1;hachureGap=4;jiggle=2;curveFitting=1;fontFamily=Architects Daughter;fontSource=https%3A%2F%2Ffonts.googleapis.com%2Fcss%3Ffamily%3DArchitects%2BDaughter;" vertex="1" parent="KGIwouoYM7CJyyVQkk_m-20">
          <mxGeometry x="20" y="180" width="240" height="50" as="geometry" />
        </mxCell>
        <mxCell id="KGIwouoYM7CJyyVQkk_m-31" value="" style="rounded=0;whiteSpace=wrap;html=1;sketch=1;hachureGap=4;jiggle=2;curveFitting=1;fontFamily=Architects Daughter;fontSource=https%3A%2F%2Ffonts.googleapis.com%2Fcss%3Ffamily%3DArchitects%2BDaughter;" vertex="1" parent="KGIwouoYM7CJyyVQkk_m-20">
          <mxGeometry x="270" y="180" width="240" height="50" as="geometry" />
        </mxCell>
        <mxCell id="KGIwouoYM7CJyyVQkk_m-32" value="NTT--NL-Bit" style="text;html=1;align=center;verticalAlign=middle;whiteSpace=wrap;rounded=0;fontFamily=Architects Daughter;fontSource=https%3A%2F%2Ffonts.googleapis.com%2Fcss%3Ffamily%3DArchitects%2BDaughter;" vertex="1" parent="KGIwouoYM7CJyyVQkk_m-20">
          <mxGeometry x="110" y="190" width="80" height="30" as="geometry" />
        </mxCell>
        <mxCell id="KGIwouoYM7CJyyVQkk_m-33" value="NTT--NL-Base" style="text;html=1;align=center;verticalAlign=middle;whiteSpace=wrap;rounded=0;fontFamily=Architects Daughter;fontSource=https%3A%2F%2Ffonts.googleapis.com%2Fcss%3Ffamily%3DArchitects%2BDaughter;" vertex="1" parent="KGIwouoYM7CJyyVQkk_m-20">
          <mxGeometry x="340" y="190" width="100" height="30" as="geometry" />
        </mxCell>
        <mxCell id="KGIwouoYM7CJyyVQkk_m-36" value="CLASS--Grathical" style="swimlane;whiteSpace=wrap;html=1;sketch=1;hachureGap=4;jiggle=2;curveFitting=1;fontFamily=Architects Daughter;fontSource=https%3A%2F%2Ffonts.googleapis.com%2Fcss%3Ffamily%3DArchitects%2BDaughter;" vertex="1" collapsed="1" parent="KGIwouoYM7CJyyVQkk_m-19">
          <mxGeometry x="560" y="30" width="140" height="30" as="geometry">
            <mxRectangle x="560" y="30" width="550" height="350" as="alternateBounds" />
          </mxGeometry>
        </mxCell>
        <mxCell id="KGIwouoYM7CJyyVQkk_m-37" value="" style="rounded=0;whiteSpace=wrap;html=1;sketch=1;hachureGap=4;jiggle=2;curveFitting=1;fontFamily=Architects Daughter;fontSource=https%3A%2F%2Ffonts.googleapis.com%2Fcss%3Ffamily%3DArchitects%2BDaughter;" vertex="1" parent="KGIwouoYM7CJyyVQkk_m-36">
          <mxGeometry x="40" y="40" width="120" height="60" as="geometry" />
        </mxCell>
        <mxCell id="KGIwouoYM7CJyyVQkk_m-38" value="NTT--Node" style="text;html=1;align=center;verticalAlign=middle;whiteSpace=wrap;rounded=0;fontFamily=Architects Daughter;fontSource=https%3A%2F%2Ffonts.googleapis.com%2Fcss%3Ffamily%3DArchitects%2BDaughter;" vertex="1" parent="KGIwouoYM7CJyyVQkk_m-36">
          <mxGeometry x="70" y="50" width="60" height="30" as="geometry" />
        </mxCell>
        <mxCell id="KGIwouoYM7CJyyVQkk_m-39" value="" style="rounded=0;whiteSpace=wrap;html=1;sketch=1;hachureGap=4;jiggle=2;curveFitting=1;fontFamily=Architects Daughter;fontSource=https%3A%2F%2Ffonts.googleapis.com%2Fcss%3Ffamily%3DArchitects%2BDaughter;" vertex="1" parent="KGIwouoYM7CJyyVQkk_m-36">
          <mxGeometry x="190" y="40" width="120" height="60" as="geometry" />
        </mxCell>
        <mxCell id="KGIwouoYM7CJyyVQkk_m-40" value="NTT--Mean" style="text;html=1;align=center;verticalAlign=middle;whiteSpace=wrap;rounded=0;fontFamily=Architects Daughter;fontSource=https%3A%2F%2Ffonts.googleapis.com%2Fcss%3Ffamily%3DArchitects%2BDaughter;" vertex="1" parent="KGIwouoYM7CJyyVQkk_m-36">
          <mxGeometry x="220" y="50" width="60" height="30" as="geometry" />
        </mxCell>
        <mxCell id="KGIwouoYM7CJyyVQkk_m-41" value="" style="rounded=0;whiteSpace=wrap;html=1;sketch=1;hachureGap=4;jiggle=2;curveFitting=1;fontFamily=Architects Daughter;fontSource=https%3A%2F%2Ffonts.googleapis.com%2Fcss%3Ffamily%3DArchitects%2BDaughter;" vertex="1" parent="KGIwouoYM7CJyyVQkk_m-36">
          <mxGeometry x="340" y="40" width="120" height="60" as="geometry" />
        </mxCell>
        <mxCell id="KGIwouoYM7CJyyVQkk_m-42" value="NTT--Rel" style="text;html=1;align=center;verticalAlign=middle;whiteSpace=wrap;rounded=0;fontFamily=Architects Daughter;fontSource=https%3A%2F%2Ffonts.googleapis.com%2Fcss%3Ffamily%3DArchitects%2BDaughter;" vertex="1" parent="KGIwouoYM7CJyyVQkk_m-36">
          <mxGeometry x="370" y="50" width="60" height="30" as="geometry" />
        </mxCell>
      </root>
    </mxGraphModel>
  </diagram>
</mxfile>
